<?xml version="1.0" encoding="utf-8"?>
<!-- Generator: Adobe Illustrator 22.1.0, SVG Export Plug-In . SVG Version: 6.00 Build 0)  -->
<svg version="1.1" id="Layer_1" xmlns="http://www.w3.org/2000/svg" xmlns:xlink="http://www.w3.org/1999/xlink" x="0px" y="0px"
	 viewBox="0 0 56.7 64" style="enable-background:new 0 0 56.7 64;" xml:space="preserve">
<style type="text/css">
	.st0{fill:#FFFFFF;}
	.st1{fill:#6e0fea;}
</style>
<circle class="st0" cx="28.2" cy="32.5" r="25"/>
<g>
	<path class="st1" d="M54.3,15L30.1,1c-1.1-0.6-2.5-0.6-3.6,0L2.3,15c-1.1,0.6-1.8,1.8-1.8,3.1V46c0,1.3,0.7,2.4,1.8,3.1l24.2,14
		c1.1,0.6,2.5,0.6,3.6,0l24.2-14c1.1-0.6,1.8-1.8,1.8-3.1V18C56,16.8,55.4,15.6,54.3,15z M36.1,36.4l-6.9,4v6c0,1.3-0.7,2.4-1.8,3.1
		l-5.2,3v-14c0-1.3,0.7-2.4,1.8-3.1l12.1-7V36.4z M36.1,20.3l-13.9,8v-6c0-1.3,0.7-2.4,1.8-3.1l12.1-7V20.3z"/>
</g>
</svg>
